<svg id="serene-alt" width="352" height="100" viewBox="0 0 352 100" fill="none" xmlns="http://www.w3.org/2000/svg">
    <path d="M12.578 73.026C11.4127 73.026 10.3867 72.8867 9.5 72.608C8.61333 72.3547 7.84067 72.0633 7.182 71.734C6.54867 71.4047 5.99133 71.1133 5.51 70.86C5.054 70.5813 4.64867 70.442 4.294 70.442C3.73667 70.442 3.458 70.9613 3.458 72H2.242V59.004H3.572C3.59733 59.5867 3.74933 60.3973 4.028 61.436C4.30667 62.4493 4.69933 63.5387 5.206 64.704C5.71267 65.844 6.33333 66.946 7.068 68.01C7.80267 69.0487 8.626 69.91 9.538 70.594C10.45 71.2527 11.4633 71.582 12.578 71.582C13.718 71.582 14.63 71.3287 15.314 70.822C15.998 70.29 16.492 69.53 16.796 68.542C17.1253 67.554 17.29 66.3633 17.29 64.97C17.29 63.374 16.9353 61.7527 16.226 60.106C15.542 58.434 14.592 56.6987 13.376 54.9C12.1853 53.1013 10.8427 51.2267 9.348 49.276C7.42267 46.7427 5.91533 44.45 4.826 42.398C3.762 40.3207 3.01467 38.37 2.584 36.546C2.15333 34.722 1.938 32.8853 1.938 31.036C1.938 28.0213 2.44467 25.5513 3.458 23.626C4.47133 21.7007 5.75067 20.282 7.296 19.37C8.86667 18.4327 10.45 17.964 12.046 17.964C13.3127 17.964 14.402 18.154 15.314 18.534C16.226 18.8887 16.9987 19.256 17.632 19.636C18.2907 20.016 18.8227 20.206 19.228 20.206C19.5573 20.206 19.798 20.1173 19.95 19.94C20.1273 19.7373 20.216 19.3573 20.216 18.8H21.432V31.72H20.14C20.064 30.884 19.836 29.782 19.456 28.414C19.076 27.046 18.544 25.678 17.86 24.31C17.2013 22.9167 16.378 21.7513 15.39 20.814C14.4273 19.8513 13.3127 19.37 12.046 19.37C10.754 19.37 9.728 19.864 8.968 20.852C8.23333 21.84 7.866 23.436 7.866 25.64C7.866 27.2867 8.15733 28.8827 8.74 30.428C9.348 31.9733 10.2347 33.5947 11.4 35.292C12.5907 36.964 14.0473 38.8387 15.77 40.916C17.4167 42.9173 18.81 44.8933 19.95 46.844C21.1153 48.7693 22.002 50.758 22.61 52.81C23.218 54.8367 23.522 56.99 23.522 59.27C23.522 61.8793 23.1673 64.0707 22.458 65.844C21.774 67.592 20.8747 68.998 19.76 70.062C18.6707 71.1007 17.4927 71.848 16.226 72.304C14.9593 72.7853 13.7433 73.026 12.578 73.026ZM60.8404 72V70.67H64.4124V20.13H60.8404V18.8H84.4004V31.492H83.0704C83.0704 29.44 82.7664 27.5527 82.1584 25.83C81.5757 24.082 80.727 22.7013 79.6124 21.688C78.523 20.6493 77.2184 20.13 75.6984 20.13H73.5704V44.716H80.4104V40.422H81.7404V50.226H80.4104V46.046H73.5704V70.67H75.6224C77.1677 70.67 78.485 70.1507 79.5744 69.112C80.689 68.048 81.5504 66.642 82.1584 64.894C82.7664 63.146 83.0704 61.246 83.0704 59.194H84.4004V72H60.8404ZM149.031 72.646C146.852 72.646 145.205 72.19 144.091 71.278C142.976 70.366 142.216 69.0993 141.811 67.478C141.431 65.8567 141.241 63.982 141.241 61.854C141.241 60.258 141.304 58.6873 141.431 57.142C141.557 55.5713 141.621 54.1527 141.621 52.886C141.621 51.1127 141.481 49.6687 141.203 48.554C140.949 47.4393 140.481 46.616 139.797 46.084C139.113 45.552 138.112 45.286 136.795 45.286H135.161V70.67H138.695V72H122.431V70.67H126.117V20.13H122.431V18.8H139.189C141.393 18.8 143.407 19.2307 145.231 20.092C147.055 20.928 148.499 22.258 149.563 24.082C150.627 25.8807 151.159 28.2367 151.159 31.15C151.159 33.4807 150.791 35.4567 150.057 37.078C149.347 38.6993 148.423 40.0293 147.283 41.068C146.143 42.1067 144.901 42.9047 143.559 43.462C142.216 44.0193 140.937 44.3867 139.721 44.564C142.837 44.716 145.167 45.286 146.713 46.274C148.283 47.262 149.335 48.7313 149.867 50.682C150.399 52.6327 150.665 55.1407 150.665 58.206C150.665 59.27 150.639 60.3467 150.589 61.436C150.538 62.5 150.513 63.5133 150.513 64.476C150.513 65.4133 150.551 66.3507 150.627 67.288C150.728 68.2253 150.893 68.998 151.121 69.606C151.349 70.214 151.678 70.518 152.109 70.518C152.387 70.518 152.615 70.4167 152.793 70.214C152.97 70.0113 153.071 69.7707 153.097 69.492H154.351C154.249 70.252 153.92 70.86 153.363 71.316C152.831 71.772 152.172 72.1013 151.387 72.304C150.601 72.532 149.816 72.646 149.031 72.646ZM135.161 43.956H137.099C138.188 43.956 139.062 43.4367 139.721 42.398C140.405 41.334 140.899 39.852 141.203 37.952C141.532 36.052 141.697 33.8353 141.697 31.302C141.697 28.9207 141.545 26.9067 141.241 25.26C140.962 23.588 140.493 22.3213 139.835 21.46C139.176 20.5733 138.289 20.13 137.175 20.13H135.161V43.956ZM190.545 72V70.67H194.117V20.13H190.545V18.8H214.105V31.492H212.775C212.775 29.44 212.471 27.5527 211.863 25.83C211.28 24.082 210.432 22.7013 209.317 21.688C208.228 20.6493 206.923 20.13 205.403 20.13H203.275V44.716H210.115V40.422H211.445V50.226H210.115V46.046H203.275V70.67H205.327C206.872 70.67 208.19 70.1507 209.279 69.112C210.394 68.048 211.255 66.642 211.863 64.894C212.471 63.146 212.775 61.246 212.775 59.194H214.105V72H190.545ZM251.907 72V70.67H255.403V20.13H251.907V18.8H264.485L275.581 51.062H275.087V20.13H271.667V18.8H279.799V20.13H276.493V72H273.073L256.201 23.93H256.809V70.67H260.343V72H251.907ZM316.687 72V70.67H320.259V20.13H316.687V18.8H340.247V31.492H338.917C338.917 29.44 338.613 27.5527 338.005 25.83C337.423 24.082 336.574 22.7013 335.459 21.688C334.37 20.6493 333.065 20.13 331.545 20.13H329.417V44.716H336.257V40.422H337.587V50.226H336.257V46.046H329.417V70.67H331.469C333.015 70.67 334.332 70.1507 335.421 69.112C336.536 68.048 337.397 66.642 338.005 64.894C338.613 63.146 338.917 61.246 338.917 59.194H340.247V72H316.687Z" fill="#9C9259"/>
    <path d="M6.66974 90.7266C6.6366 90.4164 6.49692 90.175 6.25071 90.0021C6.00687 89.8293 5.68963 89.7429 5.29901 89.7429C5.02438 89.7429 4.78883 89.7843 4.59233 89.8672C4.39583 89.95 4.2455 90.0625 4.14134 90.2045C4.03717 90.3466 3.9839 90.5088 3.98153 90.6911C3.98153 90.8426 4.01586 90.974 4.08452 91.0852C4.15554 91.1965 4.25142 91.2912 4.37216 91.3693C4.4929 91.4451 4.62666 91.509 4.77344 91.5611C4.92022 91.6132 5.06818 91.657 5.21733 91.6925L5.89915 91.8629C6.17377 91.9268 6.43774 92.0133 6.69105 92.1222C6.94673 92.2311 7.17519 92.3684 7.37642 92.5341C7.58002 92.6998 7.741 92.8999 7.85938 93.1342C7.97775 93.3686 8.03693 93.6432 8.03693 93.9581C8.03693 94.3842 7.92803 94.7595 7.71023 95.0838C7.49242 95.4058 7.17756 95.6579 6.76562 95.8402C6.35606 96.0201 5.86009 96.1101 5.2777 96.1101C4.71188 96.1101 4.22064 96.0225 3.80398 95.8473C3.38968 95.6721 3.06534 95.4164 2.83097 95.0803C2.59896 94.7441 2.47348 94.3345 2.45455 93.8516H3.75071C3.76965 94.1049 3.84777 94.3156 3.98509 94.4837C4.1224 94.6518 4.30114 94.7772 4.52131 94.8601C4.74384 94.9429 4.99242 94.9844 5.26705 94.9844C5.5535 94.9844 5.80445 94.9418 6.01989 94.8565C6.23769 94.7689 6.40814 94.6482 6.53125 94.4943C6.65436 94.3381 6.71709 94.1558 6.71946 93.9474C6.71709 93.758 6.66146 93.6018 6.55256 93.4787C6.44366 93.3532 6.29096 93.2491 6.09446 93.1662C5.90033 93.081 5.67306 93.0052 5.41264 92.9389L4.58523 92.7259C3.98627 92.572 3.51278 92.3388 3.16477 92.0263C2.81913 91.7114 2.64631 91.2936 2.64631 90.7727C2.64631 90.3442 2.76231 89.969 2.99432 89.647C3.22869 89.325 3.54711 89.0753 3.94957 88.8977C4.35204 88.7178 4.80777 88.6278 5.31676 88.6278C5.83286 88.6278 6.28504 88.7178 6.6733 88.8977C7.06392 89.0753 7.3705 89.3227 7.59304 89.6399C7.81558 89.9548 7.9304 90.317 7.9375 90.7266H6.66974ZM13.7115 96V88.7273H15.0289V92.0689H15.1177L17.9551 88.7273H19.5637L16.7512 91.9908L19.5886 96H18.0048L15.835 92.8821L15.0289 93.8338V96H13.7115ZM26.2965 88.7273V96H24.979V88.7273H26.2965ZM38.1998 88.7273V96H37.0279L33.601 91.0462H33.5407V96H32.2232V88.7273H33.4022L36.8255 93.6847H36.8894V88.7273H38.1998ZM57.3409 91.1811H56.0128C55.9749 90.9633 55.9051 90.7704 55.8033 90.6023C55.7015 90.4318 55.5748 90.2874 55.4233 90.169C55.2718 90.0507 55.099 89.9619 54.9048 89.9027C54.7131 89.8411 54.5059 89.8104 54.2834 89.8104C53.888 89.8104 53.5376 89.9098 53.2322 90.1087C52.9268 90.3052 52.6877 90.594 52.5149 90.9751C52.3421 91.3539 52.2557 91.8168 52.2557 92.3636C52.2557 92.92 52.3421 93.3887 52.5149 93.7699C52.6901 94.1487 52.9292 94.4351 53.2322 94.6293C53.5376 94.821 53.8868 94.9169 54.2798 94.9169C54.4976 94.9169 54.7012 94.8885 54.8906 94.8317C55.0824 94.7725 55.254 94.6861 55.4055 94.5724C55.5594 94.4588 55.6884 94.3191 55.7926 94.1534C55.8991 93.9877 55.9725 93.7983 56.0128 93.5852L57.3409 93.5923C57.2912 93.938 57.1835 94.2623 57.0178 94.5653C56.8544 94.8684 56.6402 95.1359 56.375 95.3679C56.1098 95.5975 55.7997 95.7775 55.4446 95.9077C55.0895 96.0355 54.6953 96.0994 54.2621 96.0994C53.6229 96.0994 53.0523 95.9515 52.5504 95.6555C52.0485 95.3596 51.6532 94.9323 51.3643 94.3736C51.0755 93.8149 50.9311 93.1449 50.9311 92.3636C50.9311 91.58 51.0767 90.91 51.3679 90.3537C51.6591 89.795 52.0556 89.3677 52.5575 89.0717C53.0594 88.7758 53.6276 88.6278 54.2621 88.6278C54.6669 88.6278 55.0433 88.6847 55.3913 88.7983C55.7393 88.9119 56.0495 89.0788 56.3217 89.299C56.594 89.5168 56.8177 89.7843 56.9929 90.1016C57.1705 90.4164 57.2865 90.7763 57.3409 91.1811ZM63.8935 96H62.4872L65.0476 88.7273H66.674L69.2379 96H67.8317L65.8892 90.2188H65.8324L63.8935 96ZM63.9396 93.1484H67.7749V94.2067H63.9396V93.1484ZM74.6958 96V88.7273H77.4231C77.9818 88.7273 78.4506 88.8243 78.8294 89.0185C79.2105 89.2126 79.4982 89.4848 79.6923 89.8352C79.8888 90.1832 79.987 90.5893 79.987 91.0533C79.987 91.5196 79.8876 91.9245 79.6887 92.2678C79.4922 92.6087 79.2022 92.8726 78.8187 93.0597C78.4352 93.2443 77.9641 93.3366 77.4054 93.3366H75.4629V92.2429H77.2278C77.5545 92.2429 77.822 92.1979 78.0304 92.108C78.2387 92.0156 78.3926 91.8819 78.492 91.7067C78.5938 91.5291 78.6447 91.3113 78.6447 91.0533C78.6447 90.7952 78.5938 90.575 78.492 90.3928C78.3902 90.2081 78.2351 90.0684 78.0268 89.9737C77.8185 89.8767 77.5498 89.8281 77.2207 89.8281H76.0133V96H74.6958ZM78.4529 92.7045L80.2534 96H78.7832L77.0147 92.7045H78.4529ZM85.6998 96V88.7273H90.4299V89.8317H87.0172V91.8061H90.1848V92.9105H87.0172V94.8956H90.4583V96H85.6998ZM103.254 88.7273H104.867L107.026 93.9972H107.111L109.27 88.7273H110.882V96H109.618V91.0036H109.551L107.541 95.9787H106.596L104.586 90.9929H104.519V96H103.254V88.7273ZM117.751 96H116.345L118.905 88.7273H120.531L123.095 96H121.689L119.747 90.2188H119.69L117.751 96ZM117.797 93.1484H121.632V94.2067H117.797V93.1484ZM131.018 96H128.553V88.7273H131.067C131.79 88.7273 132.41 88.8729 132.928 89.1641C133.449 89.4529 133.849 89.8684 134.129 90.4105C134.408 90.9527 134.548 91.6013 134.548 92.3565C134.548 93.1141 134.407 93.7652 134.125 94.3097C133.846 94.8542 133.442 95.272 132.914 95.5632C132.388 95.8544 131.756 96 131.018 96ZM129.871 94.8601H130.954C131.46 94.8601 131.883 94.7678 132.222 94.5831C132.56 94.3961 132.815 94.1179 132.985 93.7486C133.156 93.3769 133.241 92.9129 133.241 92.3565C133.241 91.8002 133.156 91.3385 132.985 90.9716C132.815 90.6023 132.563 90.3265 132.229 90.1442C131.897 89.9595 131.485 89.8672 130.993 89.8672H129.871V94.8601ZM140.299 96V88.7273H145.029V89.8317H141.617V91.8061H144.784V92.9105H141.617V94.8956H145.058V96H140.299ZM161.806 90.7266C161.773 90.4164 161.634 90.175 161.387 90.0021C161.144 89.8293 160.826 89.7429 160.436 89.7429C160.161 89.7429 159.926 89.7843 159.729 89.8672C159.533 89.95 159.382 90.0625 159.278 90.2045C159.174 90.3466 159.121 90.5088 159.118 90.6911C159.118 90.8426 159.153 90.974 159.221 91.0852C159.292 91.1965 159.388 91.2912 159.509 91.3693C159.63 91.4451 159.763 91.509 159.91 91.5611C160.057 91.6132 160.205 91.657 160.354 91.6925L161.036 91.8629C161.31 91.9268 161.574 92.0133 161.828 92.1222C162.083 92.2311 162.312 92.3684 162.513 92.5341C162.717 92.6998 162.878 92.8999 162.996 93.1342C163.114 93.3686 163.174 93.6432 163.174 93.9581C163.174 94.3842 163.065 94.7595 162.847 95.0838C162.629 95.4058 162.314 95.6579 161.902 95.8402C161.493 96.0201 160.997 96.1101 160.414 96.1101C159.849 96.1101 159.357 96.0225 158.941 95.8473C158.526 95.6721 158.202 95.4164 157.968 95.0803C157.736 94.7441 157.61 94.3345 157.591 93.8516H158.887C158.906 94.1049 158.984 94.3156 159.122 94.4837C159.259 94.6518 159.438 94.7772 159.658 94.8601C159.881 94.9429 160.129 94.9844 160.404 94.9844C160.69 94.9844 160.941 94.9418 161.157 94.8565C161.374 94.7689 161.545 94.6482 161.668 94.4943C161.791 94.3381 161.854 94.1558 161.856 93.9474C161.854 93.758 161.798 93.6018 161.689 93.4787C161.58 93.3532 161.428 93.2491 161.231 93.1662C161.037 93.081 160.81 93.0052 160.549 92.9389L159.722 92.7259C159.123 92.572 158.65 92.3388 158.301 92.0263C157.956 91.7114 157.783 91.2936 157.783 90.7727C157.783 90.3442 157.899 89.969 158.131 89.647C158.365 89.325 158.684 89.0753 159.086 88.8977C159.489 88.7178 159.944 88.6278 160.453 88.6278C160.97 88.6278 161.422 88.7178 161.81 88.8977C162.201 89.0753 162.507 89.3227 162.73 89.6399C162.952 89.9548 163.067 90.317 163.074 90.7266H161.806ZM170.166 88.7273V96H168.848V88.7273H170.166ZM176.092 88.7273H177.705L179.864 93.9972H179.949L182.108 88.7273H183.72V96H182.456V91.0036H182.388L180.379 95.9787H179.434L177.424 90.9929H177.357V96H176.092V88.7273ZM189.655 96V88.7273H192.382C192.941 88.7273 193.41 88.8314 193.788 89.0398C194.17 89.2481 194.457 89.5346 194.651 89.8991C194.848 90.2614 194.946 90.6733 194.946 91.1349C194.946 91.6013 194.848 92.0156 194.651 92.3778C194.455 92.7401 194.165 93.0253 193.781 93.2337C193.398 93.4396 192.925 93.5426 192.364 93.5426H190.557V92.4595H192.187C192.513 92.4595 192.781 92.4027 192.989 92.2891C193.198 92.1754 193.352 92.0192 193.451 91.8203C193.553 91.6214 193.604 91.393 193.604 91.1349C193.604 90.8769 193.553 90.6496 193.451 90.4531C193.352 90.2566 193.196 90.1039 192.986 89.995C192.777 89.8838 192.509 89.8281 192.18 89.8281H190.972V96H189.655ZM200.59 96V88.7273H201.908V94.8956H205.111V96H200.59ZM210.754 96V88.7273H215.485V89.8317H212.072V91.8061H215.24V92.9105H212.072V94.8956H215.513V96H210.754ZM230.426 96.1065C229.928 96.1065 229.501 96.0166 229.144 95.8366C228.786 95.6567 228.51 95.4141 228.316 95.1087C228.124 94.8009 228.029 94.4541 228.029 94.0682C228.029 93.777 228.088 93.5189 228.206 93.294C228.327 93.0691 228.493 92.8608 228.703 92.669C228.916 92.4773 229.163 92.2867 229.442 92.0973L230.731 91.2202C230.92 91.0971 231.064 90.9669 231.161 90.8295C231.26 90.6922 231.31 90.5312 231.31 90.3466C231.31 90.1903 231.244 90.0424 231.111 89.9027C230.981 89.763 230.801 89.6932 230.571 89.6932C230.417 89.6932 230.281 89.7299 230.163 89.8033C230.047 89.8743 229.956 89.9678 229.889 90.0838C229.825 90.1998 229.794 90.3229 229.794 90.4531C229.794 90.6117 229.837 90.7727 229.925 90.9361C230.015 91.0994 230.131 91.2687 230.273 91.4439C230.417 91.6191 230.571 91.8049 230.735 92.0014L234.147 96H232.755L229.921 92.7543C229.711 92.508 229.507 92.2654 229.311 92.0263C229.116 91.7872 228.957 91.5386 228.831 91.2805C228.708 91.0201 228.646 90.7384 228.646 90.4354C228.646 90.0921 228.726 89.7855 228.884 89.5156C229.043 89.2434 229.264 89.0291 229.548 88.8729C229.835 88.7166 230.17 88.6385 230.553 88.6385C230.937 88.6385 231.266 88.7143 231.541 88.8658C231.815 89.0173 232.027 89.2185 232.176 89.4695C232.325 89.7204 232.4 89.9938 232.4 90.2898C232.4 90.633 232.315 90.9408 232.144 91.2131C231.974 91.483 231.737 91.728 231.434 91.9482L229.964 93.0241C229.722 93.1993 229.55 93.3769 229.445 93.5568C229.341 93.7344 229.289 93.8859 229.289 94.0114C229.289 94.2031 229.338 94.3771 229.435 94.5334C229.532 94.6896 229.668 94.8151 229.843 94.9098C230.021 95.0021 230.228 95.0483 230.465 95.0483C230.725 95.0483 230.982 94.9903 231.235 94.8743C231.489 94.7559 231.719 94.5878 231.928 94.37C232.136 94.1522 232.302 93.8918 232.425 93.5888C232.548 93.2834 232.61 92.9448 232.61 92.5732H233.714C233.714 93.0324 233.663 93.4325 233.561 93.7734C233.459 94.112 233.328 94.3984 233.167 94.6328C233.006 94.8648 232.836 95.0507 232.656 95.1903C232.599 95.2306 232.544 95.2708 232.492 95.3111C232.44 95.3513 232.386 95.3916 232.329 95.4318C232.073 95.6638 231.774 95.8343 231.431 95.9432C231.09 96.0521 230.755 96.1065 230.426 96.1065ZM247.354 96H245.948L248.509 88.7273H250.135L252.699 96H251.293L249.35 90.2188H249.293L247.354 96ZM247.401 93.1484H251.236V94.2067H247.401V93.1484ZM258.157 96V88.7273H262.816V89.8317H259.474V91.8061H262.496V92.9105H259.474V96H258.157ZM268.516 96V88.7273H273.175V89.8317H269.834V91.8061H272.856V92.9105H269.834V96H268.516ZM285.374 92.3636C285.374 93.1473 285.227 93.8184 284.934 94.3771C284.643 94.9335 284.245 95.3596 283.741 95.6555C283.239 95.9515 282.669 96.0994 282.032 96.0994C281.396 96.0994 280.825 95.9515 280.321 95.6555C279.819 95.3572 279.421 94.9299 279.128 94.3736C278.836 93.8149 278.691 93.1449 278.691 92.3636C278.691 91.58 278.836 90.91 279.128 90.3537C279.421 89.795 279.819 89.3677 280.321 89.0717C280.825 88.7758 281.396 88.6278 282.032 88.6278C282.669 88.6278 283.239 88.7758 283.741 89.0717C284.245 89.3677 284.643 89.795 284.934 90.3537C285.227 90.91 285.374 91.58 285.374 92.3636ZM284.05 92.3636C284.05 91.812 283.963 91.3468 283.79 90.968C283.62 90.5869 283.383 90.2992 283.08 90.1051C282.777 89.9086 282.428 89.8104 282.032 89.8104C281.637 89.8104 281.288 89.9086 280.985 90.1051C280.682 90.2992 280.444 90.5869 280.271 90.968C280.101 91.3468 280.015 91.812 280.015 92.3636C280.015 92.9152 280.101 93.3816 280.271 93.7628C280.444 94.1416 280.682 94.4292 280.985 94.6257C281.288 94.8198 281.637 94.9169 282.032 94.9169C282.428 94.9169 282.777 94.8198 283.08 94.6257C283.383 94.4292 283.62 94.1416 283.79 93.7628C283.963 93.3816 284.05 92.9152 284.05 92.3636ZM291.12 96V88.7273H293.847C294.406 88.7273 294.874 88.8243 295.253 89.0185C295.634 89.2126 295.922 89.4848 296.116 89.8352C296.313 90.1832 296.411 90.5893 296.411 91.0533C296.411 91.5196 296.311 91.9245 296.113 92.2678C295.916 92.6087 295.626 92.8726 295.243 93.0597C294.859 93.2443 294.388 93.3366 293.829 93.3366H291.887V92.2429H293.652C293.978 92.2429 294.246 92.1979 294.454 92.108C294.663 92.0156 294.816 91.8819 294.916 91.7067C295.018 91.5291 295.069 91.3113 295.069 91.0533C295.069 90.7952 295.018 90.575 294.916 90.3928C294.814 90.2081 294.659 90.0684 294.451 89.9737C294.242 89.8767 293.974 89.8281 293.645 89.8281H292.437V96H291.12ZM294.877 92.7045L296.677 96H295.207L293.439 92.7045H294.877ZM304.588 96H302.124V88.7273H304.638C305.36 88.7273 305.98 88.8729 306.499 89.1641C307.019 89.4529 307.42 89.8684 307.699 90.4105C307.978 90.9527 308.118 91.6013 308.118 92.3565C308.118 93.1141 307.977 93.7652 307.695 94.3097C307.416 94.8542 307.012 95.272 306.484 95.5632C305.959 95.8544 305.327 96 304.588 96ZM303.441 94.8601H304.524C305.031 94.8601 305.453 94.7678 305.792 94.5831C306.13 94.3961 306.385 94.1179 306.555 93.7486C306.726 93.3769 306.811 92.9129 306.811 92.3565C306.811 91.8002 306.726 91.3385 306.555 90.9716C306.385 90.6023 306.133 90.3265 305.799 90.1442C305.468 89.9595 305.056 89.8672 304.563 89.8672H303.441V94.8601ZM314.413 96H313.007L315.567 88.7273H317.194L319.757 96H318.351L316.409 90.2188H316.352L314.413 96ZM314.459 93.1484H318.294V94.2067H314.459V93.1484ZM325.215 96V88.7273H327.999C328.525 88.7273 328.962 88.8101 329.31 88.9759C329.66 89.1392 329.922 89.3629 330.095 89.647C330.27 89.9311 330.357 90.2531 330.357 90.6129C330.357 90.9089 330.301 91.1622 330.187 91.3729C330.073 91.5812 329.921 91.7505 329.729 91.8807C329.537 92.0109 329.323 92.1044 329.086 92.1612V92.2322C329.344 92.2464 329.592 92.3258 329.828 92.4702C330.067 92.6122 330.263 92.8134 330.414 93.0739C330.566 93.3343 330.642 93.6491 330.642 94.0185C330.642 94.3949 330.55 94.7334 330.368 95.0341C330.186 95.3324 329.911 95.5679 329.544 95.7408C329.177 95.9136 328.716 96 328.159 96H325.215ZM326.533 94.8991H327.95C328.428 94.8991 328.772 94.808 328.983 94.6257C329.196 94.4411 329.303 94.2043 329.303 93.9155C329.303 93.7 329.249 93.5059 329.143 93.3331C329.036 93.1579 328.885 93.0206 328.688 92.9212C328.492 92.8194 328.258 92.7685 327.985 92.7685H326.533V94.8991ZM326.533 91.8203H327.836C328.063 91.8203 328.268 91.7789 328.45 91.696C328.633 91.6108 328.776 91.4912 328.88 91.3374C328.987 91.1811 329.04 90.9964 329.04 90.7834C329.04 90.5017 328.941 90.2696 328.742 90.0874C328.545 89.9051 328.253 89.8139 327.865 89.8139H326.533V91.8203ZM336.288 96V88.7273H337.605V94.8956H340.808V96H336.288ZM346.452 96V88.7273H351.182V89.8317H347.769V91.8061H350.937V92.9105H347.769V94.8956H351.21V96H346.452Z" fill="#999999"/>
</svg>