<svg id="serene" width="161" height="24" viewBox="0 0 161 24" fill="none" xmlns="http://www.w3.org/2000/svg">
    <path d="M5.584 23.432C5.02933 23.432 4.57067 23.368 4.208 23.24C3.856 23.112 3.56267 22.9627 3.328 22.792C3.104 22.6213 2.912 22.472 2.752 22.344C2.60267 22.216 2.45333 22.152 2.304 22.152C2.02667 22.152 1.888 22.4347 1.888 23H0.96V17.528H1.952C1.96267 17.7627 2.02133 18.0827 2.128 18.488C2.23467 18.8827 2.384 19.304 2.576 19.752C2.77867 20.2 3.024 20.6267 3.312 21.032C3.6 21.4267 3.93067 21.752 4.304 22.008C4.67733 22.264 5.09867 22.392 5.568 22.392C6.016 22.392 6.37333 22.296 6.64 22.104C6.90667 21.912 7.09867 21.6293 7.216 21.256C7.33333 20.872 7.392 20.4133 7.392 19.88C7.392 19.2187 7.248 18.552 6.96 17.88C6.672 17.208 6.27733 16.5093 5.776 15.784C5.27467 15.048 4.69867 14.264 4.048 13.432C3.22667 12.3653 2.58667 11.3893 2.128 10.504C1.68 9.61867 1.36533 8.78667 1.184 8.008C1.01333 7.21867 0.928 6.42933 0.928 5.64C0.928 4.44533 1.13067 3.448 1.536 2.648C1.94133 1.848 2.464 1.25067 3.104 0.855999C3.75467 0.450666 4.432 0.247999 5.136 0.247999C5.744 0.247999 6.21867 0.343999 6.56 0.535999C6.912 0.717332 7.19467 0.903999 7.408 1.096C7.62133 1.27733 7.81867 1.368 8 1.368C8.13867 1.368 8.24 1.31466 8.304 1.208C8.37867 1.10133 8.42133 0.898665 8.432 0.599998H9.36V6.04H8.368C8.34667 5.69867 8.26133 5.26133 8.112 4.728C7.97333 4.19467 7.776 3.66667 7.52 3.144C7.264 2.61067 6.93867 2.168 6.544 1.816C6.16 1.45333 5.70667 1.272 5.184 1.272C4.62933 1.272 4.19733 1.48 3.888 1.896C3.57867 2.30133 3.424 2.904 3.424 3.704C3.424 4.29067 3.552 4.904 3.808 5.544C4.064 6.17333 4.43733 6.84533 4.928 7.56C5.42933 8.27467 6.03733 9.05867 6.752 9.912C7.47733 10.7653 8.08 11.6027 8.56 12.424C9.05067 13.2347 9.41333 14.072 9.648 14.936C9.89333 15.8 10.016 16.712 10.016 17.672C10.016 18.7813 9.88267 19.7093 9.616 20.456C9.34933 21.192 8.99733 21.7787 8.56 22.216C8.13333 22.6427 7.65867 22.952 7.136 23.144C6.61333 23.336 6.096 23.432 5.584 23.432ZM29.1318 23V22.008H30.6518V1.592H29.1318V0.599998H39.0518V5.944H38.0758C38.0758 5.08 37.9798 4.32267 37.7878 3.672C37.5958 3.01067 37.3078 2.49867 36.9238 2.136C36.5504 1.77333 36.0704 1.592 35.4838 1.592H34.5078V11.304H37.2278V9.704H38.2038V13.832H37.2278V12.28H34.5078V22.008H35.4678C36.0544 22.008 36.5398 21.8213 36.9238 21.448C37.3078 21.0747 37.5958 20.5573 37.7878 19.896C37.9798 19.2347 38.0758 18.472 38.0758 17.608H39.0518V23H29.1318ZM69.8418 23.272C68.8818 23.272 68.1724 23.0587 67.7138 22.632C67.2551 22.2053 66.9564 21.6187 66.8178 20.872C66.6791 20.1147 66.6098 19.2453 66.6098 18.264C66.6098 17.6667 66.6258 17.0907 66.6578 16.536C66.6898 15.9707 66.7058 15.4853 66.7058 15.08C66.7058 14.2693 66.6471 13.64 66.5298 13.192C66.4124 12.744 66.2098 12.4293 65.9218 12.248C65.6338 12.056 65.2231 11.96 64.6898 11.96H64.0018V22.008H65.5858V23H58.5458V22.008H60.2098V1.592H58.5458V0.599998H65.6818C66.6204 0.599998 67.4684 0.781332 68.2258 1.144C68.9831 1.496 69.5858 2.056 70.0338 2.824C70.4818 3.58133 70.7058 4.57333 70.7058 5.8C70.7058 6.73867 70.5618 7.54933 70.2738 8.232C69.9964 8.91467 69.6284 9.48 69.1698 9.928C68.7218 10.376 68.2311 10.7227 67.6978 10.968C67.1644 11.2133 66.6471 11.3733 66.1458 11.448C67.3404 11.5013 68.2524 11.7147 68.8818 12.088C69.5111 12.4613 69.9431 13.032 70.1778 13.8C70.4231 14.5573 70.5458 15.5493 70.5458 16.776C70.5458 17.3093 70.5298 17.8373 70.4978 18.36C70.4658 18.8827 70.4498 19.3733 70.4498 19.832C70.4498 20.152 70.4604 20.488 70.4818 20.84C70.5138 21.1813 70.5724 21.4693 70.6578 21.704C70.7431 21.928 70.8604 22.04 71.0098 22.04C71.1378 22.04 71.2338 21.992 71.2978 21.896C71.3618 21.7893 71.3991 21.672 71.4098 21.544H72.3378C72.2844 21.9493 72.1458 22.28 71.9218 22.536C71.6978 22.792 71.4044 22.9787 71.0418 23.096C70.6898 23.2133 70.2898 23.272 69.8418 23.272ZM64.0018 10.984H64.8178C65.2764 10.984 65.6498 10.76 65.9378 10.312C66.2258 9.864 66.4391 9.256 66.5778 8.488C66.7271 7.70933 66.8018 6.83467 66.8018 5.864C66.8018 4.94667 66.7324 4.17333 66.5938 3.544C66.4658 2.904 66.2578 2.41867 65.9698 2.088C65.6818 1.75733 65.3138 1.592 64.8658 1.592H64.0018V10.984ZM90.7693 23V22.008H92.2893V1.592H90.7693V0.599998H100.689V5.944H99.7133C99.7133 5.08 99.6173 4.32267 99.4253 3.672C99.2333 3.01067 98.9453 2.49867 98.5613 2.136C98.1879 1.77333 97.7079 1.592 97.1213 1.592H96.1453V11.304H98.8653V9.704H99.8413V13.832H98.8653V12.28H96.1453V22.008H97.1053C97.6919 22.008 98.1773 21.8213 98.5613 21.448C98.9453 21.0747 99.2333 20.5573 99.4253 19.896C99.6173 19.2347 99.7133 18.472 99.7133 17.608H100.689V23H90.7693ZM119.927 23V22.008H121.399V1.592H119.927V0.599998H125.575L129.943 14.264H129.735V1.592H128.311V0.599998H132.167V1.592H130.743V23H128.647L122.183 2.856H122.423V22.008H123.911V23H119.927ZM150.938 23V22.008H152.458V1.592H150.938V0.599998H160.858V5.944H159.882C159.882 5.08 159.786 4.32267 159.594 3.672C159.402 3.01067 159.114 2.49867 158.73 2.136C158.357 1.77333 157.877 1.592 157.29 1.592H156.314V11.304H159.034V9.704H160.01V13.832H159.034V12.28H156.314V22.008H157.274C157.861 22.008 158.346 21.8213 158.73 21.448C159.114 21.0747 159.402 20.5573 159.594 19.896C159.786 19.2347 159.882 18.472 159.882 17.608H160.858V23H150.938Z" fill="#9C9259"/>
</svg>